<?xml version="1.0" encoding="utf-8"?>
<!-- Generator: Adobe Illustrator 26.0.3, SVG Export Plug-In . SVG Version: 6.00 Build 0)  -->
<svg version="1.0" id="katman_1" xmlns="http://www.w3.org/2000/svg" xmlns:xlink="http://www.w3.org/1999/xlink" x="0px" y="0px"
	 viewBox="0 0 600 450" style="enable-background:new 0 0 600 450;" xml:space="preserve">
<style type="text/css">
	.st0{fill:#1F2C51;}
	.st1{fill:#FFFFFF;}
</style>
<symbol  id="gt_Paytm" viewBox="-415.1 -415.1 830.1 830.1">
	<path class="st0" d="M-276.7-415.1h553.4c92.2,0,138.4,46.1,138.4,138.4v553.4c0,92.2-46.1,138.4-138.4,138.4h-553.4
		c-92.2,0-138.4-46.1-138.4-138.4v-553.4C-415.1-368.9-368.9-415.1-276.7-415.1L-276.7-415.1z"/>
	<path class="st1" d="M127.5-68.9h-16.9v-26.7c0.1-3.1-2.4-5.7-5.5-5.8c-0.1,0-0.2,0-0.3,0h-1.2c-18.9,5-14.8,30.5-49,32.5h-4.5
		c-2.9,0.7-4.9,3.3-4.9,6.2v28.8c-0.1,3.6,2.8,6.5,6.4,6.6c0.1,0,0.1,0,0.2,0h17.7V94.9c0,3.7,2.9,6.1,6.6,6.1h29.2
		c3.5,0.1,6.5-2.6,6.6-6.1V-26.9h16.4c3.6,0,6.5-2.9,6.6-6.5c0,0,0-0.1,0-0.1v-28.8C134.1-66,131.2-68.9,127.5-68.9L127.5-68.9z
		 M329.1-43c-6.4-17.4-23-29-41.5-28.8h-0.4c-11.9-0.1-23.3,4.6-31.7,13.1c-8.3-8.5-19.8-13.3-31.7-13.1h-0.4
		c-10.5,0.1-20.6,3.7-28.8,10.3v-3.3c-0.3-3.4-3.2-5.9-6.6-5.7h-29.6c-3.6,0-6.5,2.8-6.6,6.4c0,0,0,0.1,0,0.1V94.9
		c0,3.6,2.8,6.5,6.4,6.6c0.1,0,0.1,0,0.2,0H188c3.1-0.1,5.8-2.3,6.6-5.3V-20.4c0.4-4.9,4.1-9,10.2-9.5h5.4c2.3,0.1,4.4,1,6.1,2.5
		c2.5,2,4.1,5,4.2,8.2v114c0,3.7,2.9,6.1,6.6,6.1h29.6c3.5,0,6.3-2.7,6.6-6.1v-114c-0.1-3.7,1.8-7.1,4.9-9c1.6-1,3.5-1.5,5.4-1.7
		h5.3c5.7,0.3,10.3,5,10.3,10.7v114c0,3.7,2.9,6.1,6.6,6.1h29.6c3.5,0.1,6.5-2.6,6.6-6.1V-27.7C331.7-32.9,330.7-38.1,329.1-43z
		 M-142.8-68.1h-41.5c-3.5-0.1-6.5,2.7-6.6,6.2v26.7c0.1,3.7,3.3,6.7,7,6.6h40.3c3.2,0.4,5.6,3,5.8,6.2v4.1
		c-0.3,3.1-2.7,5.6-5.8,6.1h-19.7c-26.3,0-44.8,16.9-44.8,40.7v31.7c0,23.9,16,40.7,41.9,40.7h54.4c9.8,0,17.7-7,17.7-16V-24
		C-94.2-51.1-108.6-68-142.8-68.1L-142.8-68.1z M-137.8,54.9v5.4c-0.4,0.4-0.4,0.4-0.4,0.8c-0.8,2.9-3.3,4.5-6.6,4.5h-12.3
		c-3.7,0.1-6.9-2.9-7-6.6V34.4c0.1-3.7,3.3-6.7,7-6.6h12.3c3.7-0.1,6.8,2.9,7,6.6L-137.8,54.9z M-263.7-15.8V1.9
		c-0.1,3.7-3.3,6.7-7,6.6h-18.9v-35.8h18.9c3.7-0.1,6.8,2.8,7,6.6L-263.7-15.8L-263.7-15.8z M-261.2-68.9h-64.6
		c-3.4,0.1-6.1,2.8-6.2,6.2V94.9c-0.1,3.4,2.4,6.2,5.8,6.6h30c3.5,0.1,6.5-2.6,6.6-6.2V50.4h28.4c23.5,0,39.9-16.1,39.9-39.1v-40.7
		C-221.3-52.8-237.8-68.9-261.2-68.9z M21.4-68.9H-8.2c-3.5-0.1-6.5,2.7-6.6,6.2v60c-0.1,3.8-3.2,6.7-7,6.6c0,0,0,0,0,0h-12.3
		C-37.9,4-41,1-41.1-2.7v-59.6c0-3.7-2.9-6.2-6.5-6.2h-29.2c-3.5-0.1-6.5,2.7-6.6,6.2V3.1c0,24.7,18.1,42.4,43.6,42.4h19.8
		c3.4,0.4,6,3.2,6.2,6.6c0,3.5-2.7,6.3-6.2,6.6h-43.6c-3.5-0.1-6.5,2.7-6.6,6.2v29.6c0,3.7,2.9,6.2,6.6,6.2h48.5
		c25.5,0,43.6-17.7,43.6-42.4V-63.2C27.7-66.5,24.8-69,21.4-68.9L21.4-68.9z"/>
</symbol>
<use xlink:href="#gt_Paytm"  width="1000" height="1000" x="-415.1" y="-415.1" transform="matrix(0.3836 0 0 0.3836 300 225)" style="overflow:visible;"/>
</svg>
